<svg version="1.2" xmlns="http://www.w3.org/2000/svg" viewBox="0 0 456 456" width="456" height="456"><style>.a{opacity:1;fill:#fe862b}.b{fill:#fd8c2b}.c{opacity:1;fill:#fd922c}.d{opacity:1;fill:#fe972d}.e{opacity:1;fill:#fea52f}.f{fill:#ffab30}.g{fill:#ffb130}.h{opacity:1;fill:#ffb831}.i{opacity:1;fill:#fd802a}.j{opacity:1;fill:#fe9f2e}.k{opacity:1;fill:#fd7929}.l{opacity:1;fill:#fe992d}.m{opacity:1;fill:#fd7328}.n{opacity:1;fill:#fd6d27}.o{opacity:1;fill:#fd7f2a}.p{fill:#fe8c2b}.q{opacity:1;fill:#fd6827}.r{opacity:1;fill:#fd6626}.s{opacity:1;fill:#fd6025}.t{opacity:1;fill:#fc5a25}.u{opacity:1;fill:#fc5424}.v{opacity:1;fill:#fe862a}.w{fill:#fc4e23}.x{opacity:1;fill:#fc5a24}.y{opacity:1;fill:#fc4722}.z{opacity:1;fill:#fd6826}</style><path fill-rule="evenodd" class="a" d="m80.6 12.9q66.8 67.7 134.5 134.5 0.2 12.5-0.5 24.9-0.6 6.1-3.1 11.6-29.4-28.9-58.8-57.9 15.5-9.7 2.7-22.7-2.1-1.1-4.4-1.8-12.5-0.6-25-0.4 0.6-14.4-1.3-28.5-12.6-13-22.7 1.8-29.4-29-58.8-57.9 4.5-2.5 9.8-3.1 13.8-0.7 27.6-0.5z"/><path fill-rule="evenodd" class="b" d="m80.6 12.9q20 0 40.1 0 46.7 47.7 94.4 94.4 0 20.1 0 40.1-67.7-66.8-134.5-134.5z"/><path fill-rule="evenodd" class="c" d="m120.7 12.9q20.5 0 40.9 0 25.8 26.5 52.1 52.6 0.3-2.1 1.4-3.6 0 22.7 0 45.4-47.7-46.7-94.4-94.4z"/><path fill-rule="evenodd" class="d" d="m161.6 12.9q35.7-1.2 50.4 31.2 3 8.6 3.1 17.8-1.1 1.5-1.3 3.6-26.4-26.1-52.2-52.6z"/><path fill-rule="evenodd" class="e" d="m289 12.9q43.6 44.1 87.3 88.2-20 0-40.1 0-37.8-38.5-76.1-76.6-0.7-0.8-0.5-1.8 12.7-10.4 29.4-9.8z"/><path fill-rule="evenodd" class="f" d="m289 12.9q20.5 0 41 0 55.6 56.3 111.8 112.2 0.6-12.9 0.4-25.8 0.4 0 0.9 0 0.4 33.6-0.9 66.8-27.2-26.3-53.4-53.4-2-10.4-12.5-11.6-43.7-44.1-87.3-88.2z"/><path fill-rule="evenodd" class="g" d="m330 12.9q23.6 0 47.2 0 32 32.7 64.5 65 0.7 10.7 0.5 21.4 0.2 12.9-0.5 25.8-56.1-55.9-111.7-112.2z"/><path fill-rule="evenodd" class="h" d="m377.2 12.9q32.4-5.9 54.8 17.8 7 9.7 9.8 21.4 1.7 23.6 1.3 47.2-0.5 0-0.9 0 0.2-10.7-0.4-21.4-32.6-32.3-64.6-65z"/><path fill-rule="evenodd" class="i" d="m43.2 16.5q29.4 28.9 58.8 57.9-1.3 13.3-0.9 26.7-10.3 0-20.5 0-30.3-31.7-62.3-61.5 7.7-16.6 24.9-23.1z"/><path fill-rule="evenodd" class="j" d="m259.6 22.7q-0.2 1 0.5 1.8 38.3 38.1 76.1 76.6-16-0.2-32.1 0.4-2.2 0.8-4.4 1.4-28.6-26.6-56.1-54.8-0.8-0.6-1.8-0.5 5-15.4 17.8-24.9z"/><path fill-rule="evenodd" class="k" d="m18.3 39.6q32 29.8 62.3 61.5-18.6 2.1-12 19.6 2.6 3.5 6.7 4.9 12.9 0.6 25.8 0.4-0.2 12.5 0.4 25 7.8 17.3 22.3 5.3 2.5-3.6 2.2-8 0.8-0.2 1.4-0.9 31.2 30.6 61 62.3-13.1 6.3-27.6 5.4-3.8-1.1-8.1-1.4-70.2-70-139.8-140.2 0-5.8 0-11.6-0.8-12.1 5.4-22.3z"/><path fill-rule="evenodd" class="l" d="m241.8 47.6q1-0.1 1.8 0.5 27.5 28.2 56.1 54.8-11.5 10.1-0.9 20.9 3.6 2.5 8 2.2 7.8 1.1 16.1 1.4 43 42.4 84.6 85.9-22.2 2.5-44.6 1.8-60.5-61.2-121.5-122-0.3-3.9-1.4-7.2-0.7-19.2 1.8-38.3z"/><path fill-rule="evenodd" class="m" d="m12.9 73.5q69.6 70.2 139.8 140.3 4.3 0.2 8.1 1.3-23.6 0-47.2 0-49.9-50.8-100.7-100.7 0-20.4 0-40.9z"/><path fill-rule="evenodd" class="c" d="m240 85.9q1.1 3.3 1.4 7.2 61 60.8 121.5 122-16.9 0-33.8 0-3.8-1.1-8-1.4-40.4-40.5-81.1-80.6 0-23.6 0-47.2z"/><path fill-rule="evenodd" class="n" d="m12.9 114.4q50.8 49.9 100.7 100.7-23.6 0-47.2 0 2.8-1.1 6.2-1.4-29.6-29.6-59.2-59.2-0.7-20-0.5-40.1z"/><path fill-rule="evenodd" class="e" d="m388.8 112.7q26.2 27.1 53.4 53.4 0.6 17.4-10.7 30.3-34-34.7-68.6-69-4.2-0.3-8-1.4 13.9 0.6 27.6-1.3 6.2-4.5 6.3-12z"/><path fill-rule="evenodd" class="o" d="m152.7 126q29.4 29 58.8 57.9-6.8 17.1-23.1 25.8-29.8-31.7-61-62.3-0.6 0.7-1.4 0.9 0-11.1 0-22.3 13.4 0 26.7 0z"/><path fill-rule="evenodd" class="j" d="m306.8 126q24.1 0 48.1 0 3.8 1.1 8 1.4 34.6 34.3 68.6 69-9.3 12-24 16.9-41.6-43.5-84.6-85.9-8.3-0.3-16.1-1.4z"/><path fill-rule="evenodd" class="p" d="m240 133.1q40.7 40.1 81.1 80.7 4.2 0.2 8 1.3-23.2 0.2-46.3-0.5-32.1-5.7-41.4-36.9-1.9-22.2-1.4-44.6z"/><path fill-rule="evenodd" class="q" d="m12.9 61.9q0 5.8 0 11.6 0 20.5 0 40.9-0.2 20.1 0.5 40.1 29.6 29.6 59.2 59.3-3.4 0.2-6.2 1.3-48.7-0.8-53.9-49-1.1-52.3 0.4-104.2z"/><path fill-rule="evenodd" class="r" d="m92.2 240q3.7 1.1 8 1.4 57.3 57.5 114.9 114.4 0.2 22.3-0.5 44.5-0.2 2.5-1.3 4.5 0.2-1.8-0.4-3.6-35.8-35-70-71.2 4.6-4.3 7.6-9.8 1.9-14-12-16.1-3.9 0-7.1 2.3-3 3.1-6.3 5.8-36.9-34.7-72.1-71.3 19.5-1.3 39.2-0.9z"/><path fill-rule="evenodd" class="n" d="m92.2 240q23.6 0 47.2 0 36.9 37.6 74.3 74.8 0.3 3.9 1.4 7.2 0 16.9 0 33.8-57.6-56.9-114.9-114.4-4.3-0.3-8-1.4z"/><path fill-rule="evenodd" class="m" d="m139.4 240q19.2-0.5 38.3 1.4 31.2 9.3 36.9 41.4 0.7 19.6 0.5 39.2-1.1-3.3-1.4-7.2-37.4-37.2-74.3-74.8z"/><path fill-rule="evenodd" class="a" d="m307.7 240q31.8 32.5 64.1 64.6 3 0.2 5.4 1.3-22.3 0-44.6 0-30.7-31.6-62.3-62.3 6-2.2 12.5-3.1 12.4-0.7 24.9-0.5z"/><path fill-rule="evenodd" class="c" d="m354.9 240q16.9 0 33.9 0 26.2 26.9 53 53.5 0.6 20.4 0.4 40.9-46.9-46.2-93.5-93 3.4-0.3 6.2-1.4z"/><path fill-rule="evenodd" class="d" d="m388.8 240q48.6 0.8 53.8 49 1.2 52.3-0.4 104.2 0-9.3 0-18.7 0-20 0-40.1 0.2-20.5-0.5-40.9-26.7-26.6-52.9-53.5z"/><path fill-rule="evenodd" class="s" d="m53 240.9q35.2 36.6 72.1 71.3-5.3 5.9-11.1 11.5-9.2-9.6-19.1-18.2-9.1-3.5-16.1 3.1-24.6-26.6-50.7-52.1-1.3-0.6-2.7-0.4 11.2-12.1 27.6-15.2z"/><path fill-rule="evenodd" class="b" d="m307.7 240q23.6 0 47.2 0-2.8 1.1-6.2 1.4 46.6 46.8 93.5 93 0 20.1 0 40.1-27.7-26.4-53.4-54.3 0.1-11.9-11.6-14.3-2.4-1.1-5.4-1.3-32.3-32.1-64.1-64.6z"/><path fill-rule="evenodd" class="i" d="m270.3 243.6q31.6 30.7 62.3 62.3-14.7-0.2-29.3 0.5-6.4 1.7-8.9 7.5-23.8-23.1-47.3-46.7-0.7-0.6-1.7-0.5 8.6-15.7 24.9-23.1z"/><path fill-rule="evenodd" class="t" d="m25.4 256.1q1.4-0.2 2.7 0.4 26.1 25.5 50.7 52.1-4.3 7.1-0.4 14.3 8.4 9.5 17.3 18.7-5.3 6.2-11.5 11.5-36.1-35.2-71.3-71.2 2.3-14.9 12.5-25.8z"/><path fill-rule="evenodd" class="k" d="m245.4 266.7q1-0.1 1.7 0.5 23.5 23.6 47.3 46.7-2.5 14.2 11.5 17 2.9 1.1 6.3 1.3 9.6 9.4 18.7 19.2-13-0.3-25.9 0.4-5.4 0.7-8.9 4.9-28-27.6-56.1-55.2-1.9-18.2 5.4-34.8z"/><path fill-rule="evenodd" class="u" d="m12.9 281.9q35.2 36 71.3 71.2-2.7 3.3-5.8 6.3-6 15.7 10.7 19.6 2.3-1 4.9-1.4 6-4.9 11.5-10.2-1.5 2.6-2.2 5.3 34.8 34.6 69 69.5-20 0-40 0-59.2-59.9-118.9-119.3-0.7 16.4-0.5 32.9-0.4 0-0.9 0-0.3-37 0.9-73.9z"/><path fill-rule="evenodd" class="m" d="m240 301.5q28.1 27.6 56.1 55.2-6.4 12.6 6.3 19.1 7 1.6 14.2 1.4 31.9 32.3 64.1 65-20 0-40 0-49.4-50.1-99.3-99.8-0.3 3-1.4 5.4 0-23.2 0-46.3z"/><path fill-rule="evenodd" class="v" d="m388.8 320.2q25.7 27.9 53.4 54.3 0 9.4 0 18.7 0.9 10-3.6 18.7-24.5-25.4-49.8-49.9-2.5-9.1-11.6-10.6 0.6 0 0.9-0.5-10.1-9.8-19.6-20 10.7 0.2 21.4-0.5 7.1-2.8 8.9-10.2z"/><path fill-rule="evenodd" class="w" d="m132.3 442.2q-23.6 0-47.2 0-35.6-36.3-71.7-72.1-0.7-7.2-0.5-14.3-0.2-16.5 0.5-32.9 59.7 59.4 118.9 119.3z"/><path fill-rule="evenodd" class="s" d="m142.9 330q34.2 36.2 70 71.2 0.6 1.8 0.4 3.6-2.9 14.2-13.4 24-25.9-27.2-53.4-52.5 6.6-7 3.1-16-8.6-10-18.2-19.2 5.6-5.8 11.5-11.1z"/><path fill-rule="evenodd" class="i" d="m305.9 330.9q26.3 0 52.6 0 9.5 10.2 19.6 20-0.3 0.5-0.9 0.5-23.2 0-46.3 0-9.1-9.8-18.7-19.2-3.4-0.2-6.3-1.3z"/><path fill-rule="evenodd" class="n" d="m340.7 442.2q-20.1 0-40.1 0-29.8-30.7-60.6-60.6 0-16.9 0-33.8 1.1-2.4 1.4-5.4 49.9 49.7 99.3 99.8z"/><path fill-rule="evenodd" class="x" d="m146.5 376.3q27.5 25.3 53.4 52.5-11.4 11.3-27.6 13.4-34.2-34.9-69-69.5 0.7-2.7 2.2-5.3 3.6-4.4 8.1-8 9.1 8.9 18.7 17.3 7.1 3.9 14.2-0.4z"/><path fill-rule="evenodd" class="o" d="m388.8 362q25.3 24.5 49.8 49.9-6.4 16.7-22.2 25-29.4-29.9-58.8-59.7 11.6 0.4 23.1-1.4 8.8-4.1 8.1-13.8z"/><path fill-rule="evenodd" class="y" d="m12 355.8q0.5 0 0.9 0-0.2 7.1 0.5 14.3 36.1 35.8 71.7 72.1-18.4 0.5-36.6-1.3-28.2-9.1-35.1-37.9-1.8-23.6-1.4-47.2z"/><path fill-rule="evenodd" class="k" d="m316.6 377.2q20.5 0 41 0 29.4 29.8 58.8 59.7-6.7 3.6-14.3 4.9-10.7 0.6-21.4 0.4-32.2-32.7-64.1-65z"/><path fill-rule="evenodd" class="z" d="m240 381.6q30.8 29.9 60.6 60.6-42.3 5-58.4-33.8-2.9-13.2-2.2-26.8z"/></svg>